# xmcd
#
# Track frame offsets:
#	182
#	18637
#	31222
#	46857
#	66185
#	81220
#	89790
#	109642
#	120535
#	134175
#	145200
#	159697
#	168870
#
# Disc length: 2429 seconds
#
# Revision: 0
# Processed by: cddbd v1.5.2PL0 Copyright (c) Steve Scherf et al.
# Submitted via: EasyCDDAExtractor 9.0.0.1
#
DISCID=b4097b0d
DTITLE=Jean Guerin - Guerin Chante Angelini
DYEAR=1992
DGENRE=Vocal
TTITLE0=Les Mots
TTITLE1=Deux syllabes
TTITLE2=Midi, minuit
TTITLE3=Julietta
TTITLE4=Judith
TTITLE5=Utopie
TTITLE6=Eva
TTITLE7=Nostalgie I, II
TTITLE8=Nostalgie III
TTITLE9=Nostalgies IV
TTITLE10=Bahia
TTITLE11=Aux trottoirs de Buenos Aires
TTITLE12=Tic-tac electronique
EXTD=
EXTT0=
EXTT1=
EXTT2=
EXTT3=
EXTT4=
EXTT5=
EXTT6=
EXTT7=
EXTT8=
EXTT9=
EXTT10=
EXTT11=
EXTT12=
PLAYORDER=
